<svg xmlns="http://www.w3.org/2000/svg" viewBox="0 0 200 200" width="200" height="200">
  <!-- DAD Logo - Perfectly centered -->

  <!-- Left Tower -->
  <rect x="37" y="30" width="30" height="80" fill="#1B3A5C" rx="1"/>
  <rect x="43" y="38" width="8" height="6" fill="white" rx="0.5"/>
  <rect x="43" y="50" width="8" height="6" fill="white" rx="0.5"/>
  <rect x="43" y="62" width="8" height="6" fill="white" rx="0.5"/>
  <rect x="43" y="74" width="8" height="6" fill="white" rx="0.5"/>
  <rect x="55" y="38" width="8" height="6" fill="white" rx="0.5"/>
  <rect x="55" y="50" width="8" height="6" fill="white" rx="0.5"/>
  <rect x="55" y="62" width="8" height="6" fill="white" rx="0.5"/>
  <rect x="55" y="74" width="8" height="6" fill="white" rx="0.5"/>

  <!-- Middle Tower -->
  <rect x="73" y="20" width="42" height="90" fill="#1B3A5C" rx="1"/>
  <rect x="80" y="28" width="8" height="6" fill="white" rx="0.5"/>
  <rect x="80" y="40" width="8" height="6" fill="white" rx="0.5"/>
  <rect x="80" y="52" width="8" height="6" fill="white" rx="0.5"/>
  <rect x="80" y="64" width="8" height="6" fill="white" rx="0.5"/>
  <rect x="80" y="76" width="8" height="6" fill="white" rx="0.5"/>
  <rect x="91" y="28" width="8" height="6" fill="white" rx="0.5"/>
  <rect x="91" y="40" width="8" height="6" fill="white" rx="0.5"/>
  <rect x="91" y="52" width="8" height="6" fill="white" rx="0.5"/>
  <rect x="91" y="64" width="8" height="6" fill="white" rx="0.5"/>
  <rect x="91" y="76" width="8" height="6" fill="white" rx="0.5"/>
  <rect x="102" y="28" width="8" height="6" fill="white" rx="0.5"/>
  <rect x="102" y="40" width="8" height="6" fill="white" rx="0.5"/>
  <rect x="102" y="52" width="8" height="6" fill="white" rx="0.5"/>
  <rect x="102" y="64" width="8" height="6" fill="white" rx="0.5"/>
  <rect x="102" y="76" width="8" height="6" fill="white" rx="0.5"/>

  <!-- Right Tower -->
  <rect x="121" y="25" width="36" height="85" fill="#1B3A5C" rx="1"/>
  <rect x="128" y="33" width="8" height="6" fill="white" rx="0.5"/>
  <rect x="128" y="45" width="8" height="6" fill="white" rx="0.5"/>
  <rect x="128" y="57" width="8" height="6" fill="white" rx="0.5"/>
  <rect x="128" y="69" width="8" height="6" fill="white" rx="0.5"/>
  <rect x="142" y="33" width="8" height="6" fill="white" rx="0.5"/>
  <rect x="142" y="45" width="8" height="6" fill="white" rx="0.5"/>
  <rect x="142" y="57" width="8" height="6" fill="white" rx="0.5"/>
  <rect x="142" y="69" width="8" height="6" fill="white" rx="0.5"/>

  <!-- Base platform - centered at x=100 -->
  <rect x="33" y="105" width="134" height="8" fill="#1B3A5C" rx="1"/>

  <!-- Foundation arc - centered at x=100 -->
  <path d="M 33 113 Q 100 140 167 113" fill="none" stroke="#1B3A5C" stroke-width="4" stroke-linecap="round"/>

  <!-- Text "DAD" - centered at x=100 -->
  <text x="100" y="175" font-family="Arial, Helvetica, sans-serif" font-size="36" font-weight="bold" fill="#1B3A5C" text-anchor="middle" letter-spacing="6">DAD</text>
</svg>
