<svg xmlns="http://www.w3.org/2000/svg" viewBox="0 0 160 150" width="160" height="150">
  <!-- DAM Logo white — transparent background, for dark backgrounds -->

  <!-- Building 1 (left, short) -->
  <rect x="20" y="45" width="25" height="50" fill="#fff"/>
  <rect x="25" y="51" width="6" height="4" fill="#1B3A5C"/>
  <rect x="25" y="59" width="6" height="4" fill="#1B3A5C"/>
  <rect x="25" y="67" width="6" height="4" fill="#1B3A5C"/>
  <rect x="25" y="75" width="6" height="4" fill="#1B3A5C"/>
  <rect x="34" y="51" width="6" height="4" fill="#1B3A5C"/>
  <rect x="34" y="59" width="6" height="4" fill="#1B3A5C"/>
  <rect x="34" y="67" width="6" height="4" fill="#1B3A5C"/>
  <rect x="34" y="75" width="6" height="4" fill="#1B3A5C"/>

  <!-- Building 2 (center, tall) -->
  <rect x="55" y="20" width="40" height="75" fill="#fff"/>
  <rect x="61" y="26" width="6" height="4" fill="#1B3A5C"/>
  <rect x="61" y="34" width="6" height="4" fill="#1B3A5C"/>
  <rect x="61" y="42" width="6" height="4" fill="#1B3A5C"/>
  <rect x="61" y="50" width="6" height="4" fill="#1B3A5C"/>
  <rect x="61" y="58" width="6" height="4" fill="#1B3A5C"/>
  <rect x="61" y="66" width="6" height="4" fill="#1B3A5C"/>
  <rect x="61" y="74" width="6" height="4" fill="#1B3A5C"/>
  <rect x="61" y="82" width="6" height="4" fill="#1B3A5C"/>
  <rect x="72" y="26" width="6" height="4" fill="#1B3A5C"/>
  <rect x="72" y="34" width="6" height="4" fill="#1B3A5C"/>
  <rect x="72" y="42" width="6" height="4" fill="#1B3A5C"/>
  <rect x="72" y="50" width="6" height="4" fill="#1B3A5C"/>
  <rect x="72" y="58" width="6" height="4" fill="#1B3A5C"/>
  <rect x="72" y="66" width="6" height="4" fill="#1B3A5C"/>
  <rect x="72" y="74" width="6" height="4" fill="#1B3A5C"/>
  <rect x="72" y="82" width="6" height="4" fill="#1B3A5C"/>
  <rect x="83" y="26" width="6" height="4" fill="#1B3A5C"/>
  <rect x="83" y="34" width="6" height="4" fill="#1B3A5C"/>
  <rect x="83" y="42" width="6" height="4" fill="#1B3A5C"/>
  <rect x="83" y="50" width="6" height="4" fill="#1B3A5C"/>
  <rect x="83" y="58" width="6" height="4" fill="#1B3A5C"/>
  <rect x="83" y="66" width="6" height="4" fill="#1B3A5C"/>
  <rect x="83" y="74" width="6" height="4" fill="#1B3A5C"/>
  <rect x="83" y="82" width="6" height="4" fill="#1B3A5C"/>

  <!-- Building 3 (right, medium) -->
  <rect x="105" y="33" width="30" height="62" fill="#fff"/>
  <rect x="111" y="39" width="6" height="4" fill="#1B3A5C"/>
  <rect x="111" y="47" width="6" height="4" fill="#1B3A5C"/>
  <rect x="111" y="55" width="6" height="4" fill="#1B3A5C"/>
  <rect x="111" y="63" width="6" height="4" fill="#1B3A5C"/>
  <rect x="111" y="71" width="6" height="4" fill="#1B3A5C"/>
  <rect x="111" y="79" width="6" height="4" fill="#1B3A5C"/>
  <rect x="122" y="39" width="6" height="4" fill="#1B3A5C"/>
  <rect x="122" y="47" width="6" height="4" fill="#1B3A5C"/>
  <rect x="122" y="55" width="6" height="4" fill="#1B3A5C"/>
  <rect x="122" y="63" width="6" height="4" fill="#1B3A5C"/>
  <rect x="122" y="71" width="6" height="4" fill="#1B3A5C"/>
  <rect x="122" y="79" width="6" height="4" fill="#1B3A5C"/>

  <!-- Base line -->
  <rect x="15" y="95" width="125" height="5" fill="#fff"/>

  <!-- DAM text — monospace bold for universal rendering -->
  <text x="80" y="135" font-family="Courier New, monospace" font-size="26" font-weight="900" fill="#fff" text-anchor="middle" letter-spacing="2">DAM</text>
</svg>
