<svg xmlns="http://www.w3.org/2000/svg" viewBox="26 10 140 155" width="140" height="155">
  <!-- DAD Logo - White variant for dark backgrounds -->

  <!-- Left Tower (narrowest) -->
  <rect x="30" y="20" width="32" height="80" fill="white" rx="1"/>
  <rect x="37" y="28" width="8" height="6" fill="#1B3A5C" rx="0.5"/>
  <rect x="37" y="40" width="8" height="6" fill="#1B3A5C" rx="0.5"/>
  <rect x="37" y="52" width="8" height="6" fill="#1B3A5C" rx="0.5"/>
  <rect x="37" y="64" width="8" height="6" fill="#1B3A5C" rx="0.5"/>
  <rect x="49" y="28" width="8" height="6" fill="#1B3A5C" rx="0.5"/>
  <rect x="49" y="40" width="8" height="6" fill="#1B3A5C" rx="0.5"/>
  <rect x="49" y="52" width="8" height="6" fill="#1B3A5C" rx="0.5"/>
  <rect x="49" y="64" width="8" height="6" fill="#1B3A5C" rx="0.5"/>

  <!-- Middle Tower (tallest, widest) -->
  <rect x="68" y="10" width="44" height="90" fill="white" rx="1"/>
  <rect x="76" y="18" width="8" height="6" fill="#1B3A5C" rx="0.5"/>
  <rect x="76" y="30" width="8" height="6" fill="#1B3A5C" rx="0.5"/>
  <rect x="76" y="42" width="8" height="6" fill="#1B3A5C" rx="0.5"/>
  <rect x="76" y="54" width="8" height="6" fill="#1B3A5C" rx="0.5"/>
  <rect x="76" y="66" width="8" height="6" fill="#1B3A5C" rx="0.5"/>
  <rect x="88" y="18" width="8" height="6" fill="#1B3A5C" rx="0.5"/>
  <rect x="88" y="30" width="8" height="6" fill="#1B3A5C" rx="0.5"/>
  <rect x="88" y="42" width="8" height="6" fill="#1B3A5C" rx="0.5"/>
  <rect x="88" y="54" width="8" height="6" fill="#1B3A5C" rx="0.5"/>
  <rect x="88" y="66" width="8" height="6" fill="#1B3A5C" rx="0.5"/>
  <rect x="100" y="18" width="8" height="6" fill="#1B3A5C" rx="0.5"/>
  <rect x="100" y="30" width="8" height="6" fill="#1B3A5C" rx="0.5"/>
  <rect x="100" y="42" width="8" height="6" fill="#1B3A5C" rx="0.5"/>
  <rect x="100" y="54" width="8" height="6" fill="#1B3A5C" rx="0.5"/>
  <rect x="100" y="66" width="8" height="6" fill="#1B3A5C" rx="0.5"/>

  <!-- Right Tower (medium) -->
  <rect x="118" y="15" width="38" height="85" fill="white" rx="1"/>
  <rect x="126" y="23" width="8" height="6" fill="#1B3A5C" rx="0.5"/>
  <rect x="126" y="35" width="8" height="6" fill="#1B3A5C" rx="0.5"/>
  <rect x="126" y="47" width="8" height="6" fill="#1B3A5C" rx="0.5"/>
  <rect x="126" y="59" width="8" height="6" fill="#1B3A5C" rx="0.5"/>
  <rect x="140" y="23" width="8" height="6" fill="#1B3A5C" rx="0.5"/>
  <rect x="140" y="35" width="8" height="6" fill="#1B3A5C" rx="0.5"/>
  <rect x="140" y="47" width="8" height="6" fill="#1B3A5C" rx="0.5"/>
  <rect x="140" y="59" width="8" height="6" fill="#1B3A5C" rx="0.5"/>

  <!-- Base platform connecting towers -->
  <rect x="26" y="95" width="134" height="8" fill="white" rx="1"/>

  <!-- Foundation arc -->
  <path d="M 26 103 Q 93 130 160 103" fill="none" stroke="white" stroke-width="4" stroke-linecap="round"/>

  <!-- Text "DAD" -->
  <text x="96" y="160" font-family="Arial, Helvetica, sans-serif" font-size="36" font-weight="bold" fill="white" text-anchor="middle" letter-spacing="5">DAD</text>
</svg>
