<svg xmlns="http://www.w3.org/2000/svg" viewBox="0 0 180 160" width="180" height="160">
  <!-- DAM Logo white variant — 3 buildings, minimalist -->

  <!-- Left building -->
  <rect x="25" y="45" width="28" height="60" fill="white"/>
  <rect x="30" y="52" width="7" height="5" fill="#1B3A5C"/>
  <rect x="30" y="62" width="7" height="5" fill="#1B3A5C"/>
  <rect x="30" y="72" width="7" height="5" fill="#1B3A5C"/>
  <rect x="30" y="82" width="7" height="5" fill="#1B3A5C"/>
  <rect x="41" y="52" width="7" height="5" fill="#1B3A5C"/>
  <rect x="41" y="62" width="7" height="5" fill="#1B3A5C"/>
  <rect x="41" y="72" width="7" height="5" fill="#1B3A5C"/>
  <rect x="41" y="82" width="7" height="5" fill="#1B3A5C"/>

  <!-- Middle building -->
  <rect x="62" y="25" width="40" height="80" fill="white"/>
  <rect x="68" y="32" width="7" height="5" fill="#1B3A5C"/>
  <rect x="68" y="42" width="7" height="5" fill="#1B3A5C"/>
  <rect x="68" y="52" width="7" height="5" fill="#1B3A5C"/>
  <rect x="68" y="62" width="7" height="5" fill="#1B3A5C"/>
  <rect x="68" y="72" width="7" height="5" fill="#1B3A5C"/>
  <rect x="68" y="82" width="7" height="5" fill="#1B3A5C"/>
  <rect x="68" y="92" width="7" height="5" fill="#1B3A5C"/>
  <rect x="79" y="32" width="7" height="5" fill="#1B3A5C"/>
  <rect x="79" y="42" width="7" height="5" fill="#1B3A5C"/>
  <rect x="79" y="52" width="7" height="5" fill="#1B3A5C"/>
  <rect x="79" y="62" width="7" height="5" fill="#1B3A5C"/>
  <rect x="79" y="72" width="7" height="5" fill="#1B3A5C"/>
  <rect x="79" y="82" width="7" height="5" fill="#1B3A5C"/>
  <rect x="79" y="92" width="7" height="5" fill="#1B3A5C"/>
  <rect x="90" y="32" width="7" height="5" fill="#1B3A5C"/>
  <rect x="90" y="42" width="7" height="5" fill="#1B3A5C"/>
  <rect x="90" y="52" width="7" height="5" fill="#1B3A5C"/>
  <rect x="90" y="62" width="7" height="5" fill="#1B3A5C"/>
  <rect x="90" y="72" width="7" height="5" fill="#1B3A5C"/>
  <rect x="90" y="82" width="7" height="5" fill="#1B3A5C"/>
  <rect x="90" y="92" width="7" height="5" fill="#1B3A5C"/>

  <!-- Right building -->
  <rect x="111" y="35" width="32" height="70" fill="white"/>
  <rect x="117" y="42" width="7" height="5" fill="#1B3A5C"/>
  <rect x="117" y="52" width="7" height="5" fill="#1B3A5C"/>
  <rect x="117" y="62" width="7" height="5" fill="#1B3A5C"/>
  <rect x="117" y="72" width="7" height="5" fill="#1B3A5C"/>
  <rect x="117" y="82" width="7" height="5" fill="#1B3A5C"/>
  <rect x="128" y="42" width="7" height="5" fill="#1B3A5C"/>
  <rect x="128" y="52" width="7" height="5" fill="#1B3A5C"/>
  <rect x="128" y="62" width="7" height="5" fill="#1B3A5C"/>
  <rect x="128" y="72" width="7" height="5" fill="#1B3A5C"/>
  <rect x="128" y="82" width="7" height="5" fill="#1B3A5C"/>

  <!-- Base -->
  <rect x="20" y="105" width="130" height="6" fill="white"/>

  <!-- DAM text -->
  <text x="84" y="145" font-family="Arial, Helvetica, sans-serif" font-size="32" font-weight="bold" fill="white" text-anchor="middle" letter-spacing="4">DAM</text>
</svg>
