<svg xmlns="http://www.w3.org/2000/svg" viewBox="0 0 512 512" width="512" height="512">
  <!-- DAM Favicon - Three blue buildings (the actual DAM logo) -->
  
  <!-- Left Tower (narrowest) -->
  <rect x="72" y="48" width="82" height="205" fill="#1B3A5C" rx="2"/>
  <!-- Left tower windows -->
  <rect x="90" y="68" width="20" height="15" fill="white" rx="1"/>
  <rect x="90" y="98" width="20" height="15" fill="white" rx="1"/>
  <rect x="90" y="128" width="20" height="15" fill="white" rx="1"/>
  <rect x="90" y="158" width="20" height="15" fill="white" rx="1"/>
  <rect x="120" y="68" width="20" height="15" fill="white" rx="1"/>
  <rect x="120" y="98" width="20" height="15" fill="white" rx="1"/>
  <rect x="120" y="128" width="20" height="15" fill="white" rx="1"/>
  <rect x="120" y="158" width="20" height="15" fill="white" rx="1"/>
  
  <!-- Middle Tower (tallest, widest) -->
  <rect x="172" y="20" width="112" height="233" fill="#1B3A5C" rx="2"/>
  <!-- Middle tower windows -->
  <rect x="192" y="42" width="20" height="15" fill="white" rx="1"/>
  <rect x="192" y="72" width="20" height="15" fill="white" rx="1"/>
  <rect x="192" y="102" width="20" height="15" fill="white" rx="1"/>
  <rect x="192" y="132" width="20" height="15" fill="white" rx="1"/>
  <rect x="192" y="162" width="20" height="15" fill="white" rx="1"/>
  <rect x="222" y="42" width="20" height="15" fill="white" rx="1"/>
  <rect x="222" y="72" width="20" height="15" fill="white" rx="1"/>
  <rect x="222" y="102" width="20" height="15" fill="white" rx="1"/>
  <rect x="222" y="132" width="20" height="15" fill="white" rx="1"/>
  <rect x="222" y="162" width="20" height="15" fill="white" rx="1"/>
  <rect x="252" y="42" width="20" height="15" fill="white" rx="1"/>
  <rect x="252" y="72" width="20" height="15" fill="white" rx="1"/>
  <rect x="252" y="102" width="20" height="15" fill="white" rx="1"/>
  <rect x="252" y="132" width="20" height="15" fill="white" rx="1"/>
  <rect x="252" y="162" width="20" height="15" fill="white" rx="1"/>
  
  <!-- Right Tower (medium) -->
  <rect x="302" y="35" width="98" height="218" fill="#1B3A5C" rx="2"/>
  <!-- Right tower windows -->
  <rect x="322" y="57" width="20" height="15" fill="white" rx="1"/>
  <rect x="322" y="87" width="20" height="15" fill="white" rx="1"/>
  <rect x="322" y="117" width="20" height="15" fill="white" rx="1"/>
  <rect x="322" y="147" width="20" height="15" fill="white" rx="1"/>
  <rect x="358" y="57" width="20" height="15" fill="white" rx="1"/>
  <rect x="358" y="87" width="20" height="15" fill="white" rx="1"/>
  <rect x="358" y="117" width="20" height="15" fill="white" rx="1"/>
  <rect x="358" y="147" width="20" height="15" fill="white" rx="1"/>
  
  <!-- Base platform connecting towers -->
  <rect x="62" y="248" width="348" height="20" fill="#1B3A5C" rx="2"/>
  
  <!-- Foundation arc -->
  <path d="M 62 268 Q 236 330 410 268" fill="none" stroke="#1B3A5C" stroke-width="10" stroke-linecap="round"/>
  
  <!-- Text "DAM" -->
  <text x="236" y="400" font-family="Arial, Helvetica, sans-serif" font-size="100" font-weight="bold" fill="#1B3A5C" text-anchor="middle" letter-spacing="12">DAM</text>
</svg>
