<svg xmlns="http://www.w3.org/2000/svg" viewBox="0 0 32 32">
  <defs>
    <clipPath id="shield">
      <path d="M16 2L4 8v8c0 7.5 5.1 14.2 12 16 6.9-1.8 12-8.5 12-16V8L16 2z"/>
    </clipPath>
  </defs>
  <!-- Shield background -->
  <path d="M16 2L4 8v8c0 7.5 5.1 14.2 12 16 6.9-1.8 12-8.5 12-16V8L16 2z" fill="#1B3A5C"/>
  <!-- D letter -->
  <path d="M9 10h3c2.8 0 4.5 1.8 4.5 5s-1.7 5-4.5 5H9V10zm2 1.8v6.4h1c1.8 0 2.5-1.2 2.5-3.2s-.7-3.2-2.5-3.2h-1z" fill="#FFFFFF"/>
  <!-- A letter -->
  <path d="M18 20l3.2-10h2.1l3.2 10h-2.1l-.6-2h-3.1l-.6 2H18zm2.8-3.7h2.1L22 13.3l-1.2 3z" fill="#FFFFFF"/>
  <!-- Gold accent line -->
  <rect x="9" y="24" width="14" height="1.5" rx="0.75" fill="#E8B84B"/>
</svg>
